<?xml version="1.0" encoding="UTF-8"?>
<svg version="1.1" xmlns="http://www.w3.org/2000/svg" width="1012" height="1223">
<path d="M0 0 C82.34029486 -2.02517634 164.11787238 18.12677564 314.56591797 103.06640625 C315.10925781 103.4835791 315.65259766 103.90075195 316.21240234 104.33056641 C329.02648434 114.18951946 341.22684451 124.68331141 353.06835938 135.68652344 C354.58028952 137.07964851 356.10776556 138.45363276 357.64013672 139.82421875 C366.81491764 148.07711814 375.21658558 156.98688636 383.56591797 166.06640625 C384.45666016 167.030625 385.34740234 167.99484375 386.26513672 168.98828125 C391.59576684 174.83057744 396.62412349 180.89324054 401.56591797 187.06640625 C401.98067383 187.58154785 402.39542969 188.09668945 402.82275391 188.62744141 C459.45758963 259.09072273 496.42418005 343.62014947 514.56591797 493.06640625 C514.58638184 494.04883301 514.6068457 495.03125977 514.62792969 496.04345703 C516.24210783 582.15519165 495.93587678 666.55372243 387.76123047 841.66015625 C386.58047643 842.95436353 385.40641137 844.25571643 384.27758789 845.59545898 C378.45277849 852.46282687 372.03253393 858.7502132 365.65991211 865.1027832 C363.63328817 867.12404893 361.61206249 869.15060199 359.59130859 871.17773438 C353.4222405 877.35031867 347.27416992 883.47335989 340.56591797 889.06640625 C339.50903993 889.97813778 338.4530205 890.89086577 337.39794922 891.8046875 C312.27520706 913.22239394 285.04851078 931.45193324 256.56591797 948.06640625 C255.20684326 948.85966309 255.20684326 948.85966309 253.8203125 949.66894531 C228.7365828 964.1630259 201.93779022 975.67180497 174.56591797 985.06640625 C173.57350098 985.41219727 172.58108398 985.75798828 171.55859375 986.11425781 C124.94048656 1002.23086941 74.41040196 1012.08169449 25.01513672 1012.26953125 C23.77012894 1012.27659088 22.52512115 1012.28365051 21.24238586 1012.29092407 C17.24604534 1012.30843735 13.24978889 1012.31561642 9.25341797 1012.31640625 C8.5711615 1012.31670082 7.88890503 1012.31699539 7.18597412 1012.31729889 C-13.83459956 1012.31876435 -34.57997118 1012.0033448 -55.43408203 1009.06640625 C-56.14087097 1008.96930359 -56.84765991 1008.87220093 -57.5758667 1008.77215576 C-112.08910899 1001.27016965 -163.74296771 985.80663132 -213.43408203 962.06640625 C-214.27277832 961.67163086 -215.11147461 961.27685547 -215.97558594 960.87011719 C-249.54168324 945.02150689 -282.13804235 924.09292515 -310.43408203 900.06640625 C-311.50130158 899.17259314 -312.56903646 898.2793951 -313.63720703 897.38671875 C-319.48489159 892.48606219 -325.25137545 887.51191812 -330.89208984 882.37280273 C-332.4985847 880.91520026 -334.11155735 879.46467753 -335.73339844 878.02416992 C-341.89858122 872.5432295 -347.80270697 866.84961702 -353.62158203 861.00390625 C-354.47171875 860.15763672 -355.32185547 859.31136719 -356.19775391 858.43945312 C-361.15299652 853.47655763 -365.87398072 848.3922301 -370.43408203 843.06640625 C-371.45552508 841.90969406 -372.47892253 840.75470437 -373.50439453 839.6015625 C-380.99032527 831.11904523 -388.00045299 822.36213045 -394.76611328 813.29638672 C-396.45713253 811.03558902 -398.16371169 808.78714803 -399.87158203 806.5390625 C-413.59411082 788.34859968 -425.48380917 769.03412103 -436.43408203 749.06640625 C-436.92086426 748.17937012 -437.40764648 747.29233398 -437.90917969 746.37841797 C-469.25061829 688.80724163 -488.74581094 625.27083526 -495.43408203 560.06640625 C-495.52021759 559.24202057 -495.60635315 558.41763489 -495.69509888 557.56826782 C-497.4057045 540.7465254 -497.79615773 524.02932819 -497.74658203 507.12890625 C-497.74475922 505.83447601 -497.7429364 504.54004578 -497.74105835 503.20639038 C-497.69400079 483.31851887 -497.13934558 463.78814382 -494.43408203 444.06640625 C-494.30326233 443.09133118 -494.30326233 443.09133118 -494.1697998 442.09655762 C-486.27702486 383.35262198 -468.86189511 328.07732892 -442.43408203 275.06640625 C-442.01304199 274.22029785 -441.59200195 273.37418945 -441.15820312 272.50244141 C-425.54657322 241.3860675 -405.78160987 211.26876008 -382.93408203 184.96484375 C-380.59611912 182.254268 -378.35344341 179.48943834 -376.12158203 176.69140625 C-366.52311948 164.96181652 -355.74982112 154.28850663 -345.05908203 143.56640625 C-344.54320526 143.04785065 -344.02732849 142.52929504 -343.49581909 141.99502563 C-337.65652019 136.13273508 -331.75474308 130.41465791 -325.43408203 125.06640625 C-324.42438072 124.18947719 -323.4152297 123.31191395 -322.40673828 122.43359375 C-313.67764043 114.95820526 -304.63084256 107.95543741 -295.43408203 101.06640625 C-294.78117188 100.5760791 -294.12826172 100.08575195 -293.45556641 99.58056641 C-222.60336426 46.51378681 -138.22422908 13.3483867 0 0 Z M-190.43408203 312.06640625 C-185.90788846 321.28394746 -185.90788846 321.28394746 -180.87548828 330.23046875 C-180.2502124 331.275979 -179.62493652 332.32148926 -178.98071289 333.39868164 C-177.99856812 335.02858032 -177.99856812 335.02858032 -176.99658203 336.69140625 C-175.56950066 339.07657491 -174.14613619 341.46395217 -172.72314453 343.8515625 C-172.36403488 344.45344894 -172.00492523 345.05533539 -171.63493347 345.67546082 C-167.98981065 351.79354428 -164.42286254 357.95592857 -160.87158203 364.12890625 C-159.94925781 365.73125122 -159.94925781 365.73125122 -159.00830078 367.3659668 C-156.52999247 371.67475519 -154.05485682 375.98536242 -151.57958984 380.29589844 C-143.19118629 394.89728054 -134.70043337 409.43099483 -126.09033203 423.90234375 C-125.49091797 424.9190918 -124.89150391 425.93583984 -124.27392578 426.98339844 C-122.99947731 429.11897903 -121.69802169 431.23858583 -120.37548828 433.34472656 C-119.72451172 434.40014648 -119.07353516 435.45556641 -118.40283203 436.54296875 C-117.51241211 437.95570068 -117.51241211 437.95570068 -116.60400391 439.39697266 C-115.19766622 442.60584082 -115.29971018 443.78929648 -116.43408203 447.06640625 C-117.33021231 448.94957357 -118.30059808 450.79824411 -119.32080078 452.6171875 C-120.22294312 454.23488037 -120.22294312 454.23488037 -121.14331055 455.88525391 C-121.8024649 457.04995723 -122.46189595 458.21450401 -123.12158203 459.37890625 C-123.80285489 460.59273161 -124.48375781 461.80676466 -125.16430664 463.02099609 C-130.08947978 471.78533747 -135.13792142 480.47643752 -140.23168945 489.14379883 C-144.39166739 496.23452419 -148.43683452 503.38283395 -152.43408203 510.56640625 C-157.00974986 518.78843902 -161.67003257 526.95207263 -166.43408203 535.06640625 C-171.47920368 543.66431947 -176.43205073 552.30985147 -181.30908203 561.00390625 C-181.92267578 562.09509766 -182.53626953 563.18628906 -183.16845703 564.31054688 C-183.72791016 565.31150391 -184.28736328 566.31246094 -184.86376953 567.34375 C-185.36118652 568.23312256 -185.85860352 569.12249512 -186.37109375 570.03881836 C-187.51146899 571.83246144 -187.51146899 571.83246144 -187.43408203 573.06640625 C-141.56408203 573.06640625 -95.69408203 573.06640625 -48.43408203 573.06640625 C-38.65706339 555.60895034 -38.65706339 555.60895034 -28.88598633 538.14819336 C-24.36801285 530.07294397 -19.84121031 522.00287645 -15.28613281 513.94848633 C-14.18624228 512.00278676 -13.08822507 510.05602689 -11.9921875 508.1081543 C-9.64823776 503.9474445 -7.29098136 499.80129379 -4.83251953 495.70703125 C8.0792384 474.00759298 13.90619611 447.96666155 7.94091797 423.00390625 C7.22877785 420.32928444 6.4238838 417.69750147 5.56591797 415.06640625 C5.19982422 413.90109375 4.83373047 412.73578125 4.45654297 411.53515625 C0.72329372 401.11892996 -5.03359725 391.83555005 -10.69580078 382.37109375 C-13.18649644 378.20462753 -15.60379511 374.00923819 -17.95361328 369.76171875 C-18.51814209 368.74271484 -19.0826709 367.72371094 -19.66430664 366.67382812 C-20.72282314 364.75445191 -21.77494876 362.83153001 -22.8190918 360.90429688 C-26.42481015 354.39963086 -30.66400079 348.76019555 -35.43408203 343.06640625 C-36.01335449 342.34146973 -36.59262695 341.6165332 -37.18945312 340.86962891 C-50.22289344 324.6001825 -72.10938326 314.7826692 -92.43408203 312.06640625 C-95.66042941 311.93043374 -98.88254104 311.93990771 -102.11132812 311.95288086 C-103.0680542 311.95273483 -104.02478027 311.95258881 -105.01049805 311.95243835 C-108.15952861 311.95313268 -111.30849935 311.96090256 -114.45751953 311.96875 C-116.64612801 311.97061589 -118.8347369 311.97203898 -121.02334595 311.97303772 C-126.77395793 311.97684946 -132.52454451 311.98666827 -138.27514648 311.9977417 C-144.14713192 312.00798471 -150.01912148 312.01254153 -155.89111328 312.01757812 C-167.40544733 312.02829175 -178.91976257 312.04535203 -190.43408203 312.06640625 Z M291.31518555 320.23828125 C290.60195936 321.42406131 289.90084999 322.61719287 289.21044922 323.81640625 C288.63475945 324.78623192 288.63475945 324.78623192 288.04743958 325.77565002 C286.81207176 327.86558686 285.59433483 329.9651023 284.37841797 332.06640625 C283.52954112 333.51829062 282.6804184 334.97003125 281.83105469 336.42163086 C264.15674032 366.74706686 249.02038796 397.00220257 258.31591797 432.76953125 C264.0488503 453.14321167 275.61595941 471.41683406 286.26904297 489.5078125 C286.81238281 490.43480957 287.35572266 491.36180664 287.91552734 492.31689453 C289.03010031 494.17374672 290.17841386 496.01069858 291.35693359 497.82763672 C291.91574219 498.6992041 292.47455078 499.57077148 293.05029297 500.46875 C293.81164551 501.61911743 293.81164551 501.61911743 294.58837891 502.79272461 C295.84839914 505.723436 295.54895818 507.05887562 294.56591797 510.06640625 C293.40527344 512.42456055 293.40527344 512.42456055 291.93310547 514.890625 C291.10649414 516.28958008 291.10649414 516.28958008 290.26318359 517.71679688 C289.66183594 518.71904297 289.06048828 519.72128906 288.44091797 520.75390625 C287.15633275 522.9240466 285.87250402 525.09463488 284.58935547 527.265625 C283.92387695 528.38759277 283.25839844 529.50956055 282.57275391 530.66552734 C279.36119958 536.1079789 276.21475554 541.58751141 273.06591797 547.06640625 C267.60350474 556.5515928 262.10633421 566.01582563 256.58496094 575.46679688 C251.21976463 584.65193894 245.88787659 593.85615949 240.56591797 603.06640625 C238.26039364 600.11636839 236.34192482 597.08095339 234.48388672 593.83203125 C233.88898438 592.795625 233.29408203 591.75921875 232.68115234 590.69140625 C232.045 589.57765625 231.40884766 588.46390625 230.75341797 587.31640625 C229.39396647 584.9459104 228.03260736 582.57651152 226.67138672 580.20703125 C226.32655243 579.60620728 225.98171814 579.0053833 225.62643433 578.38635254 C222.30144622 572.59634594 218.93705459 566.82965127 215.56591797 561.06640625 C208.81830091 549.519468 202.13252209 537.93738128 195.45703125 526.34863281 C192.32911649 520.91980683 189.19733349 515.49321344 186.06591797 510.06640625 C184.81589918 507.89975042 183.56589918 505.73308375 182.31591797 503.56640625 C181.69716797 502.49390625 181.07841797 501.42140625 180.44091797 500.31640625 C174.81591797 490.56640625 174.81591797 490.56640625 172.94067383 487.31591797 C171.69156279 485.15083554 170.44237668 482.98579643 169.19311523 480.82080078 C166.05389487 475.38024919 162.91601234 469.93893409 159.78076172 464.49609375 C153.73536638 454.00408531 147.67481578 443.52158949 141.56591797 433.06640625 C134.81890603 421.51911109 128.13252479 409.93738598 121.45703125 398.34863281 C118.32911649 392.91980683 115.19733349 387.49321344 112.06591797 382.06640625 C110.81589918 379.89975042 109.56589918 377.73308375 108.31591797 375.56640625 C107.69716797 374.49390625 107.07841797 373.42140625 106.44091797 372.31640625 C100.81591797 362.56640625 100.81591797 362.56640625 98.93774414 359.31079102 C97.6984553 357.16276579 96.45903656 355.0148155 95.21948242 352.86694336 C92.28389229 347.77985076 89.34966125 342.69198778 86.42001343 337.60147095 C85.03263702 335.19096877 83.64452173 332.78089249 82.25634766 330.37084961 C81.27417982 328.66496657 80.29308412 326.95846639 79.31201172 325.25195312 C78.71904297 324.22263672 78.12607422 323.19332031 77.51513672 322.1328125 C76.99266357 321.22474854 76.47019043 320.31668457 75.93188477 319.38110352 C74.86613831 317.57514424 73.72911044 315.81119496 72.56591797 314.06640625 C68.82578564 315.31311703 68.57100947 316.31974651 66.71044922 319.703125 C66.17460205 320.66589355 65.63875488 321.62866211 65.08666992 322.62060547 C64.52294678 323.65459473 63.95922363 324.68858398 63.37841797 325.75390625 C62.20151205 327.87509845 61.0244294 329.9961926 59.84716797 332.1171875 C59.27998047 333.14666504 58.71279297 334.17614258 58.12841797 335.23681641 C56.2405764 338.6555795 54.31772931 342.0515854 52.37841797 345.44140625 C51.46382812 347.04822266 51.46382812 347.04822266 50.53076172 348.6875 C49.07002578 351.19950117 47.58538489 353.68556702 46.06982422 356.1640625 C36.19556673 372.39511445 29.70746711 387.49354103 30.81591797 406.87890625 C30.87038086 407.93062012 30.92484375 408.98233398 30.98095703 410.06591797 C32.51927791 437.33959058 43.42427214 457.96497425 56.87255859 481.14599609 C58.63496069 484.18547906 60.39030969 487.22894521 62.14404297 490.2734375 C65.30670137 495.76294164 68.47394252 501.24978412 71.64257812 506.73583984 C74.78550591 512.17831519 77.92558915 517.62243102 81.06591797 523.06640625 C82.31590387 525.23308105 83.56590388 527.39974771 84.81591797 529.56640625 C152.31591797 646.56640625 152.31591797 646.56640625 154.19335938 649.82104492 C155.43475107 651.97252077 156.67660779 654.12372837 157.91894531 656.2746582 C160.83281322 661.32089541 163.74210135 666.36959886 166.63446045 671.42819214 C167.65798206 673.21776752 168.6830105 675.00647131 169.70849609 676.79492188 C170.99405173 679.03799481 172.27677966 681.28269165 173.55615234 683.52929688 C178.82382974 694.03389967 178.82382974 694.03389967 187.56591797 701.06640625 C189.72514869 701.37143368 189.72514869 701.37143368 192.0307312 701.34056091 C193.36382324 701.35552361 193.36382324 701.35552361 194.72384644 701.37078857 C195.69121735 701.37145325 196.65858826 701.37211792 197.65527344 701.37280273 C198.68009827 701.38112625 199.7049231 701.38944977 200.76080322 701.39802551 C204.15160918 701.4221385 207.54222284 701.43089904 210.93310547 701.4375 C213.28956155 701.44646488 215.64601703 701.4555867 218.00247192 701.46485901 C222.94371932 701.48135478 227.88489891 701.48905029 232.82617188 701.49194336 C239.15716268 701.49732962 245.48751619 701.53501809 251.81832695 701.58068752 C256.68594693 701.61043119 261.55341291 701.61766633 266.42111588 701.61866951 C268.75511725 701.62287663 271.08911888 701.63533049 273.42303085 701.65618706 C276.68842187 701.68304601 279.95232832 701.67829153 283.21777344 701.66577148 C284.18109589 701.68060577 285.14441833 701.69544006 286.13693237 701.71072388 C290.53877318 701.66266982 293.59167895 701.52424877 297.09396362 698.69573975 C299.55365853 696.0794462 301.32405712 693.6489482 303.08154297 690.5234375 C303.99129883 688.92604736 303.99129883 688.92604736 304.91943359 687.29638672 C305.54527344 686.16861816 306.17111328 685.04084961 306.81591797 683.87890625 C307.47841563 682.70277257 308.14183615 681.52715826 308.80615234 680.35205078 C310.1266981 678.011589 311.43892435 675.66703103 312.74755859 673.31982422 C314.31977473 670.506807 315.9120324 667.70727997 317.51904297 664.9140625 C332.19967864 639.25438905 342.5827669 611.54426419 335.56591797 581.72265625 C335.23591797 580.51609375 334.90591797 579.30953125 334.56591797 578.06640625 C334.10185547 576.349375 334.10185547 576.349375 333.62841797 574.59765625 C328.40095958 558.50258701 318.22151915 544.04398943 309.49511719 529.65087891 C307.62301215 526.55117926 305.77977734 523.43590442 303.94091797 520.31640625 C303.37880615 519.40753662 302.81669434 518.49866699 302.23754883 517.56225586 C299.45419093 512.80168331 297.63714014 509.06464671 298.71142578 503.51904297 C300.64474296 497.96987029 303.74119387 493.01992126 306.75341797 488.00390625 C307.48399303 486.76080273 308.21305577 485.51680929 308.94067383 484.27197266 C310.4236444 481.74025968 311.91505597 479.2138549 313.41455078 476.69189453 C315.94846021 472.42857854 318.44155561 468.14186058 320.93408203 463.85424805 C322.64261473 460.91699968 324.35763508 457.9836164 326.07373047 455.05078125 C329.73973399 448.77742836 333.37461968 442.48633717 337.00341797 436.19140625 C337.62539063 435.11246094 338.24736328 434.03351563 338.88818359 432.921875 C340.78120923 429.63697633 342.67367395 426.35175522 344.56591797 423.06640625 C352.44254386 409.39086311 360.33711889 395.72679667 368.29882812 382.10058594 C373.1833274 373.73538397 378.03384707 365.35088485 382.8659668 356.95532227 C385.78754518 351.87923701 388.71357341 346.80604579 391.66477966 341.74713135 C392.69778075 339.97596108 393.72891463 338.20371665 394.75952148 336.43115234 C396.05063189 334.21190319 397.34517263 331.99464472 398.64379883 329.77978516 C399.52370483 328.26457275 399.52370483 328.26457275 400.42138672 326.71875 C400.93338623 325.84210693 401.44538574 324.96546387 401.97290039 324.06225586 C403.32059513 321.52776357 404.50914066 319.00331036 405.66548157 316.37916565 C406.02235707 315.57088601 406.37923258 314.76260637 406.74692249 313.92983341 C407.017191 313.31490245 407.28745951 312.69997149 407.56591797 312.06640625 C393.58819517 311.94950175 379.6105484 311.86171615 365.63243675 311.80734539 C359.14182964 311.78125026 352.65155092 311.74585241 346.16113281 311.68920898 C339.89766842 311.63488823 333.63451993 311.60498508 327.37083817 311.59202003 C324.98099418 311.58278043 322.59116751 311.56473766 320.20145798 311.53775597 C316.85430266 311.50146648 313.50845316 311.4964611 310.16113281 311.4987793 C309.17282471 311.48080292 308.1845166 311.46282654 307.16625977 311.44430542 C299.16965848 311.50424502 295.99763819 313.63947176 291.31518555 320.23828125 Z M-330.43408203 574.06640625 C-334.72408203 581.65640625 -339.01408203 589.24640625 -343.43408203 597.06640625 C-346.07590081 601.6938112 -348.7202187 606.31950241 -351.37158203 610.94140625 C-356.48787885 619.87006111 -361.55036065 628.82682795 -366.55908203 637.81640625 C-371.09475045 645.95379695 -375.71916337 654.0315853 -380.43408203 662.06640625 C-385.46679241 670.65002103 -390.42623447 679.27186058 -395.30908203 687.94140625 C-395.92267578 689.02421875 -396.53626953 690.10703125 -397.16845703 691.22265625 C-397.72791016 692.22039062 -398.28736328 693.218125 -398.86376953 694.24609375 C-399.36118652 695.13022949 -399.85860352 696.01436523 -400.37109375 696.92529297 C-401.58230835 698.9665592 -401.58230835 698.9665592 -401.43408203 701.06640625 C-355.23408203 701.06640625 -309.03408203 701.06640625 -261.43408203 701.06640625 C-256.48408203 692.15640625 -251.53408203 683.24640625 -246.43408203 674.06640625 C-239.43408203 662.06640625 -239.43408203 662.06640625 -235.96533203 656.16015625 C-232.18766125 649.6841492 -228.55597982 643.13045405 -224.93408203 636.56640625 C-220.16224692 627.92015167 -215.30742903 619.33381261 -210.30908203 610.81640625 C-205.51032626 602.63543606 -200.74905663 594.43533077 -196.05908203 586.19140625 C-195.49302246 585.20366211 -194.92696289 584.21591797 -194.34375 583.19824219 C-193.8295752 582.29106445 -193.31540039 581.38388672 -192.78564453 580.44921875 C-192.33012207 579.64887207 -191.87459961 578.84852539 -191.40527344 578.02392578 C-190.28593514 576.13200335 -190.28593514 576.13200335 -190.43408203 574.06640625 C-236.63408203 574.06640625 -282.83408203 574.06640625 -330.43408203 574.06640625 Z M380.56591797 661.84765625 C369.5524145 673.43082369 369.56591797 685.34856553 369.56591797 701.06640625 C386.06591797 701.06640625 402.56591797 701.06640625 419.56591797 701.06640625 C419.56591797 684.56640625 419.56591797 668.06640625 419.56591797 651.06640625 C404.1421094 651.06640625 392.21181627 651.47552808 380.56591797 661.84765625 Z " fill="#FFFFFF" transform="translate(497.43408203125,-0.06640625)"/>
<path d="M0 0 C26 0 26 0 32.6875 5.5 C34.18424528 7.62617127 35.62931625 9.7904578 37 12 C38.11554053 13.31791735 39.25858702 14.61345294 40.4375 15.875 C42.53238125 18.28411344 44.60549042 20.71099698 46.671875 23.14453125 C52.27008973 29.72718954 57.95485613 36.19497941 63.84375 42.51953125 C67.6511657 46.60897774 71.33554058 50.78241462 75 55 C77.97 58.3 80.94 61.6 84 65 C84.33 43.55 84.66 22.1 85 0 C91.6 0 98.2 0 105 0 C105 31.02 105 62.04 105 94 C80 94 80 94 73.5 88.6875 C71.93902297 86.50059928 70.4354599 84.27126372 69 82 C67.58743795 80.20921095 66.1502526 78.43753194 64.6875 76.6875 C63.61435547 75.35332031 63.61435547 75.35332031 62.51953125 73.9921875 C58.28508593 68.96337336 53.73828895 64.22811955 49.23046875 59.4453125 C46.28967421 56.32224078 43.43600823 53.13727908 40.63671875 49.88671875 C38.62126228 47.56341213 36.56151538 45.28251535 34.5 43 C31.06710898 39.19677998 27.67356693 35.36287677 24.3125 31.49609375 C23.56450684 30.64347059 22.80201622 29.80201622 22 29 C21.67 50.45 21.34 71.9 21 94 C14.07 94 7.14 94 0 94 C0 62.98 0 31.96 0 0 Z " fill="#FFFFFF" transform="translate(556,1129)"/>
<path d="M0 0 C12.6225 -0.061875 25.245 -0.12375 38.25 -0.1875 C42.21290039 -0.21481201 46.17580078 -0.24212402 50.25878906 -0.27026367 C55.15576172 -0.28381348 55.15576172 -0.28381348 57.45941162 -0.28633118 C59.04391011 -0.29089156 60.6283992 -0.30134473 62.21282959 -0.31672668 C87.02383005 -0.54523212 87.02383005 -0.54523212 96.37890625 7.25390625 C103.48642307 14.90947256 103.44124896 24.63003713 103.2734375 34.4921875 C102.96914542 41.76808239 101.0883208 47.41376353 95.6875 52.4375 C89.11819162 57.41723269 82.18296344 59.13101277 74.01635742 59.11352539 C72.83551071 59.11344986 71.654664 59.11337433 70.43803406 59.11329651 C69.17328751 59.10813522 67.90854095 59.10297394 66.60546875 59.09765625 C65.30297684 59.0962413 64.00048492 59.09482635 62.65852356 59.09336853 C59.20783546 59.08956355 55.75718992 59.07975064 52.30651855 59.06866455 C48.78052354 59.05840689 45.25452139 59.05380669 41.72851562 59.04882812 C34.81897291 59.03865806 27.90954686 59.01908129 21 59 C21 70.55 21 82.1 21 94 C14.07 94 7.14 94 0 94 C0 62.98 0 31.96 0 0 Z M21 18 C21 25.92 21 33.84 21 42 C28.15396518 42.0919139 35.30587538 42.17153143 42.45996094 42.21972656 C44.89264881 42.23982071 47.32528851 42.26710088 49.7578125 42.30175781 C53.25793355 42.3503706 56.75741502 42.37299139 60.2578125 42.390625 C61.88470505 42.42159271 61.88470505 42.42159271 63.54446411 42.45318604 C69.66414595 42.45499761 73.39656866 42.1960396 78 38 C80.1260621 33.93275077 80.31616121 30.34800184 79.6171875 25.8984375 C78.58917176 22.73631314 76.53129251 21.03738177 74 19 C71.51644959 17.75822479 69.86892378 17.87963319 67.09130859 17.88647461 C66.07040131 17.88655014 65.04949402 17.88662567 63.99765015 17.88670349 C62.89240997 17.89186478 61.7871698 17.89702606 60.6484375 17.90234375 C58.95468491 17.90446617 58.95468491 17.90446617 57.22671509 17.90663147 C53.60945012 17.91224256 49.99224636 17.92479697 46.375 17.9375 C43.92708423 17.94251357 41.47916748 17.94707672 39.03125 17.95117188 C33.0207906 17.96136601 27.01046407 17.98093933 21 18 Z " fill="#FFFFFF" transform="translate(127,1129)"/>
<path d="M0 0 C8.25 0 16.5 0 25 0 C36.35972218 22.48761329 47.21303236 45.233153 58 68 C67.98849245 48.29460554 77.56795772 28.38419238 86.66137695 8.25 C87.08765381 7.30898437 87.51393066 6.36796875 87.953125 5.3984375 C88.32598633 4.57005371 88.69884766 3.74166992 89.08300781 2.88818359 C90 1 90 1 91 0 C92.85369611 -0.08737645 94.71067541 -0.10698153 96.56640625 -0.09765625 C97.69111328 -0.09443359 98.81582031 -0.09121094 99.97460938 -0.08789062 C101.15861328 -0.07951172 102.34261719 -0.07113281 103.5625 -0.0625 C104.75037109 -0.05798828 105.93824219 -0.05347656 107.16210938 -0.04882812 C110.10812226 -0.03699675 113.05403681 -0.02051287 116 0 C114.43738167 5.22574268 112.18088855 9.90880032 109.73388672 14.75927734 C109.30443756 15.61846771 108.8749884 16.47765808 108.43252563 17.36288452 C107.01869909 20.18914947 105.59923417 23.01254187 104.1796875 25.8359375 C103.19570582 27.8001689 102.21207833 29.76457777 101.22879028 31.72915649 C98.644709 36.88969697 96.05583104 42.04781647 93.46594238 47.20544434 C90.82204652 52.47274703 88.18270029 57.74232822 85.54296875 63.01171875 C80.36642547 73.34338052 75.18439291 83.67227492 70 94 C62.08 94 54.16 94 46 94 C35.9855926 75.14935077 26.37938342 56.12266227 17.23925781 36.83227539 C14.69146876 31.4742621 12.08895285 26.14728182 9.421875 20.84765625 C9.12091415 20.24926941 8.81995331 19.65088257 8.50987244 19.03436279 C7.033888 16.10311211 5.55168311 13.17518241 4.06274414 10.25048828 C3.26791626 8.67823486 3.26791626 8.67823486 2.45703125 7.07421875 C1.98241455 6.14182373 1.50779785 5.20942871 1.01879883 4.2487793 C0 2 0 2 0 0 Z " fill="#FFFFFF" transform="translate(769,1129)"/>
<path d="M0 0 C8.91 0 17.82 0 27 0 C32.81750224 10.92985269 38.48787636 21.91306618 44 33 C47.93778929 40.91989304 51.90556679 48.81721743 56.0625 56.625 C59.87534414 63.79639538 63.5799123 71.01996582 67.22702026 78.27679443 C68.11113434 80.03492701 68.99901929 81.79116169 69.88696289 83.54736328 C70.42184326 84.61583496 70.95672363 85.68430664 71.5078125 86.78515625 C71.98879395 87.74301025 72.46977539 88.70086426 72.96533203 89.68774414 C74 92 74 92 74 94 C66.08 94 58.16 94 50 94 C43.23118175 81.35007737 36.73374933 68.5788275 30.3125 55.75 C29.90566986 54.93883728 29.49883972 54.12767456 29.0796814 53.29193115 C23.8880779 42.93483165 18.83411015 32.52896837 14 22 C11.31181742 25.31190485 9.4186381 28.89165242 7.53833008 32.69628906 C7.04024086 33.69202942 7.04024086 33.69202942 6.53208923 34.70788574 C5.44076449 36.89192316 4.35512677 39.07873496 3.26953125 41.265625 C2.51188013 42.78465927 1.75387443 44.30351673 0.99552917 45.82220459 C-0.99555915 49.81200272 -2.98182999 53.80418028 -4.96710205 57.796875 C-6.99534229 61.87384582 -9.02813647 65.94854442 -11.06054688 70.0234375 C-15.0448219 78.01341127 -19.02358657 86.0061108 -23 94 C-30.92 94 -38.84 94 -47 94 C-45.69744841 90.09234524 -44.55667904 86.86369336 -42.75 83.26953125 C-42.31212158 82.39506348 -41.87424316 81.5205957 -41.4230957 80.61962891 C-40.95347412 79.69327637 -40.48385254 78.76692383 -40 77.8125 C-39.50653076 76.83200684 -39.01306152 75.85151367 -38.50463867 74.84130859 C-35.12467753 68.15068554 -31.64942637 61.51528256 -28.12744141 54.89868164 C-23.2074945 45.59705641 -18.55394074 36.15985219 -13.8840332 26.73095703 C-9.41679539 17.72921607 -4.76396644 8.84888199 0 0 Z " fill="#FFFFFF" transform="translate(445,1129)"/>
<path d="M0 0 C6.93 0 13.86 0 21 0 C21 25.08 21 50.16 21 76 C44.76 76 68.52 76 93 76 C93 81.94 93 87.88 93 94 C62.31 94 31.62 94 0 94 C0 62.98 0 31.96 0 0 Z " fill="#FFFFFF" transform="translate(271,1129)"/>
</svg>
